<svg id="Слой_1" data-name="Слой 1" xmlns="http://www.w3.org/2000/svg" viewBox="0 0 3000 2000"><defs><style>.cls-1{fill:#fff;}.cls-2{fill:#ebf3fa;}.cls-3{fill:#d5e5fb;}.cls-4{fill:#b7d3f3;}.cls-5{fill:#d2e3fc;}.cls-6{fill:#c5dcf8;}.cls-7{fill:#ffb27d;}.cls-8{fill:#1c468a;}.cls-9{fill:#163560;}.cls-10{fill:#b5453c;}.cls-11{fill:#ed975d;}.cls-12{fill:#ed7d2b;}.cls-13{fill:#f99746;}.cls-14{fill:#f9ddbf;}.cls-15{fill:#ed893e;}.cls-16{fill:#95c0f4;}.cls-17{fill:#78acea;}.cls-18{fill:#2e3552;}.cls-19{fill:#aec3ff;}.cls-20{fill:#a02e2e;}.cls-21{fill:#bc3f3f;}.cls-22{fill:#9db0f4;}.cls-23{fill:#233862;}.cls-24{fill:#2b478b;}.cls-25{fill:#e2915a;}.cls-26{fill:#2a4e96;}.cls-27{fill:#dceaff;}.cls-28{fill:#ed985f;}.cls-29{fill:#2c3a64;}</style></defs><rect class="cls-1" width="3000" height="2000"/><path class="cls-2" d="M471.51,1718.79s-361.5-384.18-108-742.55c94.59-133.73,336.07-208.82,558.05-147.9,131.12,36,330,30.67,524.27-286.5,265-432.55,1364.9-235.87,1150.2,522-90.44,319.22,246.64,333.75,79.67,655.67Z" transform="translate(0)"/><path class="cls-3" d="M2428.62,949.17l-787.43,658.75L1226.9,1255c-77.54,68.28-197.3,173.68-317.78,279.44-82.33,72.28-149,130.68-203,178l-376.29-.44c104.35-88.84,524.5-458,807.56-707.57l86.55-76.29,418.8,356.78,614.71-514.27Z" transform="translate(0)"/><polygon class="cls-3" points="2157.75 689.58 2532.77 1065.74 2638.71 636.02 2157.75 689.58"/><path class="cls-4" d="M928.36,1482.18c-1.4-34.44-4.42-64.41-8-85.3-5.76-33.31-11-52.47-11-52.67-.76-2.93-11.72-14.79-36.09-14.42s-22.06,15.91-22.06,15.91h0a5,5,0,0,0,.18,1.38c.23.8,22.6,81.92,21.63,186.65,0,1.47-.18,4-.07,5.7,0,0,56.48,1.46,56.49,0C931.37,1530.28,930.41,1504.92,928.36,1482.18Z" transform="translate(0)"/><path class="cls-5" d="M935.46,1533.21c0,1.46-.78,2.63-1.72,2.63h0c-.94,0-1.68-1.19-1.69-2.63H883.61c0,1.46-.78,2.63-1.72,2.63h0c-1,0-1.71-1.23-1.7-2.7a733.14,733.14,0,0,0-4-82.69c-6.44-61.62-18.33-102.8-18.5-103.37a5,5,0,0,1-.18-1.38s-2.31-15.54,22.06-15.91,35.34,11.49,36.1,14.42c0,.15,3,11,6.88,30.51,1.29,6.46,2.69,13.87,4.12,22.16,3.61,20.89,6.63,50.86,8,85.3C936.71,1504.92,937.43,1524.06,935.46,1533.21Z" transform="translate(0)"/><path class="cls-6" d="M876.58,1535.84h189.76S1061.92,1518,952,1520.62C874.26,1522.51,876.58,1535.84,876.58,1535.84Z" transform="translate(0)"/><path class="cls-4" d="M861.14,1722.63c22-111.38,16.34-179.73,16.32-180.59-.06-1.72,3.1-3.27,4.8-3.33s9.32-.51,10.19,1c1.16,1.92,5.59,86.13-27.2,183Z" transform="translate(0)"/><path class="cls-4" d="M1038.31,1722.63c-22-111.38-16.34-179.73-16.31-180.59,0-1.72-3.11-3.27-4.81-3.33s-9.31-.51-10.19,1c-1.15,1.92-5.59,86.13,27.21,183Z" transform="translate(0)"/><path class="cls-4" d="M1073.43,1722.63c-22-111.38-16.35-179.73-16.32-180.59.05-1.72-3.11-3.27-4.81-3.33s-9.31-.51-10.19,1c-1.15,1.92-5.58,86.13,27.21,183Z" transform="translate(0)"/><path class="cls-4" d="M896.49,1722.63c22-111.38,16.34-179.73,16.31-180.59,0-1.72,3.11-3.27,4.81-3.33s9.31-.51,10.19,1c1.15,1.92,5.58,86.13-27.21,183Z" transform="translate(0)"/><rect class="cls-4" x="872.81" y="1531.22" width="197.53" height="10.33" rx="3.89"/><path class="cls-7" d="M1059.79,1370.18l63.08-13.66,3.71,9S1057,1407,1050.46,1405,1059.79,1370.18,1059.79,1370.18Z" transform="translate(0)"/><path class="cls-7" d="M1002.44,1655.46a5.6,5.6,0,0,0-1,6l0,0c1.44,4,6.22,8.46,11.77,12.91.71.57,1.34,1.1,1.89,1.58.14.12.29.25.42.38l.33.29c5.17,4.77,3.23,5.86,12.52,15.54,10.6,11,17.9,11.23,20,10.23,1.75-.86-1.82-6.71-5.77-13.28-.19-.32-.38-.64-.58-1l-1.57-2.64c-4.63-7.91-3.44-11.63-2.35-23.4.9-9.57,14.89-53.46,14.89-53.46l-20.31-3.5s-6.12,34.95-12.86,40.33c-3.6,2.87-7.64,2.91-11.1,5-.24.15-.49.3-.72.46A26.49,26.49,0,0,0,1002.44,1655.46Z" transform="translate(0)"/><path class="cls-8" d="M1002.44,1655.46a5.6,5.6,0,0,0-1,6l0,0c1.77,4,6.43,8.43,11.79,12.87.7.58,1.32,1.12,1.87,1.62.14.12.29.25.42.38l.33.29c5.17,4.77,3.23,5.86,12.52,15.54,10.6,11,17.9,11.23,20,10.23,1.75-.86-1.82-6.71-5.77-13.28a45.17,45.17,0,0,1-18.89-13.93c-6.39-8.14-10.64-18.61-15-24.67-.24.15-.49.3-.72.46A26.49,26.49,0,0,0,1002.44,1655.46Z" transform="translate(0)"/><path class="cls-7" d="M1166.23,1642.77c1.25,6.27,10.19,5.22,20.18,2.78s7.61.46,21.82-1.11,18.52-6.87,19-9c.39-1.88-6.63-2.54-14.17-3.41-.94-.1-1.89-.22-2.85-.34-8.5-1.07-14.73-6.55-22.45-11.06-7.32-4.27-18.24-21.66-18.24-21.66l-19.49,1.54s10.23,15.54,14.19,22.29c2.32,4,2.2,9.23,1.91,13.28A25.26,25.26,0,0,0,1166.23,1642.77Z" transform="translate(0)"/><path class="cls-8" d="M1186.41,1645.55c10-2.44,7.61.46,21.82-1.11s18.52-6.87,19-9c.39-1.88-6.63-2.54-14.17-3.41l-.07.15a40,40,0,0,1-20.35,6.32c-9.64.24-19.85-2.53-26.51-2.42a25.26,25.26,0,0,0,.15,6.67C1167.48,1649,1176.42,1648,1186.41,1645.55Z" transform="translate(0)"/><path class="cls-7" d="M1122.87,1356.52s4.64-11.38,9.75-11.84,21.36-3,22.52-.7,0,10.68-3.49,13.7-25.07,7.89-25.07,7.89Z" transform="translate(0)"/><path class="cls-9" d="M1091.54,1518.15l-42,113a38.58,38.58,0,0,1-12.64-1.16c-5.69-1.64-12.22-6-12.22-6s10.42-108.54,29.53-131.11S1091.54,1518.15,1091.54,1518.15Z" transform="translate(0)"/><path class="cls-8" d="M925.41,1472.42s120.69-40.81,147.61-32.13,107.73,169.48,107.73,169.48-1.82,2.42-6.8,4.29c-4.63,1.74-15.84,1.63-15.84,1.63s-72.94-62.52-81.62-80.75-12.15-35.6-20.84-33.87-112,42.55-135.45,18.24-17.31-55.9-17.31-55.9Z" transform="translate(0)"/><path class="cls-10" d="M994.22,1184.65c-5.22-3-11.47-3.29-15.84-3a7.43,7.43,0,0,1,3.34-1.59c-2.72-.4-8.77,2.29-8.77,2.29-37.72-14.53-43.65,41-42.85,53.91s.88,27.75-18,39.33c-37,22.77-5.79,62.52-5.79,62.52.29.17,17.24,28.91,17.24,28.91-1-10.43,47.16-65.45,72.26-81.93,6.11-9,8.28-24.89,8.44-26.14-1,12.6-3.21,19.67-5.14,23.65C1020.42,1263,1008.05,1192.51,994.22,1184.65Z" transform="translate(0)"/><path class="cls-7" d="M994.37,1285.88c.13,0-12.12,6.41-21.33,3.89-8.66-2.36-14.32-13.59-14.2-13.62,3.67-.73,4.72-5.77,4.65-27.43l1.65.32,27.89,5.52s-.63,8.78-.65,17C992.36,1278.55,992.78,1285.14,994.37,1285.88Z" transform="translate(0)"/><path class="cls-11" d="M993,1254.56s-.63,8.78-.65,17c-15.61-.44-23.86-14.68-27.24-22.57Z" transform="translate(0)"/><path class="cls-10" d="M962.26,1246s-8.17-12.93-10.14-24c-1.4-7.88,2.62-37.13,32-32.91a39.9,39.9,0,0,1,16.56,6.26c6.38,4.3,15.59,13.61,5.29,39.12l-2.67,8.62Z" transform="translate(0)"/><path class="cls-7" d="M998.24,1262.39s-36.92.61-37-22.39-4.8-38.41,18.77-39.77,28.17,7.41,30,15.08S1007.85,1261.64,998.24,1262.39Z" transform="translate(0)"/><path class="cls-10" d="M996.88,1199.67s-10.11,27-25.63,31-22.24-.17-22.24-.17a43.92,43.92,0,0,0,14.37-26S989.25,1186.82,996.88,1199.67Z" transform="translate(0)"/><path class="cls-10" d="M994.37,1201.86s7.55,6,9.39,11.88,2.67,17.91,6.19,17.5c0,0,7.61-18.34-1-28.71C999.93,1191.52,994.37,1201.86,994.37,1201.86Z" transform="translate(0)"/><path class="cls-8" d="M912.15,1385.21c-3.64-15.27,8.75-44.9,21.68-69.43,11.73-22.24,23.91-40.28,25-39.63,30.94,18.37,33.74,3.1,33.74,3.1h0s28.11,3.73,36.07,17.43c9.88,17,20.54,64.51,31.14,73.5-1.63,5-.93,7.63.79,13.8.37,1.32.78,2.58,1.23,3.77a71.93,71.93,0,0,0,5.32,10.92c-5.39,3.28-15.79,9.5-23.45,5-11.68-6.84-20.8-27.65-25.93-35.94l0-.09c-11.15,63.11,4,77.48-3.67,84.13-8.1,7-19.68-3.34-45.15,7.7-16.71,7.25-39.89,17.72-55.5,19.55-8.18,1-14.29-.47-16.28-6C891.31,1457,919.1,1414.33,912.15,1385.21Z" transform="translate(0)"/><path class="cls-1" d="M990,1248.45s.68,2.92,8,2.47c0,0,6.11-.37,5.92-3.59C1003.91,1247.33,998,1245.05,990,1248.45Z" transform="translate(0)"/><path class="cls-9" d="M897.1,1473.06c2,5.52,8.1,7,16.28,6,10.8-4.71,57.47-22.79,57-35-.78-18.13-9-18.71-3.19-41.1,4.65-18-38.47-51.39-45.34-58.66-12.94,24.53-13.29,25.69-9.65,41C919.1,1414.33,891.31,1457,897.1,1473.06Z" transform="translate(0)"/><path class="cls-8" d="M891.82,1407.64c8.28-11.62,16.9-17.76,22.57-20.85-1.3-3.37,34.81-47.64,34.81-54.5s9.64-56.14,9.64-56.14-30.1,1.86-40.51,16.39C905.3,1310.71,878.23,1380.64,891.82,1407.64Z" transform="translate(0)"/><path class="cls-7" d="M914.39,1386.79l60.13,15.69-5.64,10.13s-73.18-.51-77.06-5S914.39,1386.79,914.39,1386.79Z" transform="translate(0)"/><path class="cls-9" d="M1017.75,1367.76c5.13,8.29,14.25,29.1,25.93,35.94,7.66,4.47,18.06-1.75,23.45-5a71.93,71.93,0,0,1-5.32-10.92c-4.3,1-9.54,2.24-12.93,3.26C1042.3,1393,1017.75,1367.76,1017.75,1367.76Z" transform="translate(0)"/><path class="cls-7" d="M974.52,1402.48s18.89-5.35,23.39-4.1,19.9,11.46,17.74,14.23-15.75-1.66-22-.82-11.08,3.92-15.58,3.25a51.69,51.69,0,0,1-9.2-2.43Z" transform="translate(0)"/><path class="cls-7" d="M974.52,1402.48s9.24-4.75,11.87-7.45a.74.74,0,0,1,1.15.13c.7,1.11,1.36,3.26-1.88,5.39C981,1403.62,974.52,1402.48,974.52,1402.48Z" transform="translate(0)"/><path class="cls-12" d="M1061.79,1429.05h-88.1a7,7,0,0,1,7-7h81.08Z" transform="translate(0)"/><polygon class="cls-12" points="1061.54 1333.1 1197.75 1333.1 1165.08 1429.05 1027.98 1429.05 1061.54 1333.1"/><polygon class="cls-13" points="1199.76 1333.1 1167.08 1429.04 1029.99 1429.04 1063.55 1333.1 1199.76 1333.1"/><path class="cls-14" d="M1126.32,1380.18a8.85,8.85,0,0,1-8.17,6.64c-3.67,0-6-3-5.11-6.64a8.87,8.87,0,0,1,8.17-6.64C1124.88,1373.54,1127.17,1376.52,1126.32,1380.18Z" transform="translate(0)"/><path class="cls-15" d="M1199.76,1333.1,1167.08,1429h-90.79c60.14-20.52,76.15-83.11,78.84-95.94Z" transform="translate(0)"/><path class="cls-16" d="M804.32,1722.63a3.53,3.53,0,0,0,3.49-2.87l17.11-97,24.6-139.47,6.88-39-17.52-.5-3,22.64-21.35,159.09-12.66,94.3A2.47,2.47,0,0,0,804.32,1722.63Z" transform="translate(0)"/><path class="cls-17" d="M835.84,1466.48c11.35,5,13.68,16.85,13.68,16.85l6.88-39-17.52-.5Z" transform="translate(0)"/><path class="cls-16" d="M1240.26,1722.63a3.53,3.53,0,0,1-3.49-2.87l-17.1-97-24.61-139.47-6.88-39,17.52-.5,3,22.64,21.36,159.09,12.65,94.3A2.47,2.47,0,0,1,1240.26,1722.63Z" transform="translate(0)"/><path class="cls-17" d="M1208.74,1466.48c-11.35,5-13.68,16.85-13.68,16.85l-6.88-39,17.52-.5Z" transform="translate(0)"/><rect class="cls-17" x="781.93" y="1429.03" width="470.22" height="30.62" rx="10.69" transform="translate(2034.08 2888.67) rotate(180)"/><rect class="cls-18" x="165.86" y="1714.69" width="2644.84" height="7.02" rx="3"/><path class="cls-7" d="M1907.47,1412.71s-11.64,14.44-8,16.41,13.25,5.65,15.52,3.33,3-19.34,3-19.34Z" transform="translate(0)"/><path class="cls-7" d="M1907.94,1413s-4.76,1.65-6.63,4.13-6,6.25-5,7.29,7-3.57,7-3.57Z" transform="translate(0)"/><path class="cls-19" d="M1951.48,1219.88s-13.12,122.17-14.29,125.65c-.25.75-1.28,4.62-2.73,10.18-2.07,8-5,19.37-7.76,30.23-4.17,16.4-8,31.54-8,31.54l-11.4-3.76s-.59-59.37,2.34-73,12.31-97.67,17-109S1951.48,1219.88,1951.48,1219.88Z" transform="translate(0)"/><path class="cls-20" d="M1924.19,1512.84l-71.57-18.77a17.58,17.58,0,0,1-12.5-21.38l8.14-31a17.55,17.55,0,0,1,21.38-12.49l71.57,18.77a17.56,17.56,0,0,1,12.5,21.38l-8.14,31A17.56,17.56,0,0,1,1924.19,1512.84Z" transform="translate(0)"/><path class="cls-21" d="M1857.7,1444.13l-8.23,31.37a17.6,17.6,0,0,0,4.27,16.55,17,17,0,0,0,4.7,3.54h0A17.35,17.35,0,0,0,1862,1497l71.44,18.74a17.63,17.63,0,0,0,21.46-12.54l8.23-31.38a17.63,17.63,0,0,0-12.54-21.46l-24.6-6.45,1.75-6.69a5.8,5.8,0,0,0-4.14-7.08l-2.69-.71-15-3.92-3.72-1a5.77,5.77,0,0,0-4.39.61,5.71,5.71,0,0,0-2.68,3.53l-1.76,6.69-14.25-3.74c-.57-.15-1.13-.26-1.69-.35h0a17.61,17.61,0,0,0-15.29,5.06h0A17.4,17.4,0,0,0,1857.7,1444.13Zm64.79-1.18-25.57-6.71,1.76-6.69a2.17,2.17,0,0,1,2.64-1.54l6.42,1.68,11.78,3.09,3.18.83a2.32,2.32,0,0,1,.6.26,2.19,2.19,0,0,1,1,2.39Z" transform="translate(0)"/><path class="cls-7" d="M1914.27,1432.77s3.18-5.35,2-7.22-5.48,5.55-5.48,5.55,2.93-6.37,1.84-7.42S1907,1430,1907,1430s2.79-6.19,1.81-6.4-4.31,5.21-4.31,5.21,1.73-4.64.15-4.41-5,4.44-5,4.44Z" transform="translate(0)"/><path class="cls-22" d="M1934.46,1355.71c-2.07,8-5,19.37-7.76,30.23a117.69,117.69,0,0,1-5.48-24c-2.64-20.21,5.47-63.29,5.47-63.29Z" transform="translate(0)"/><path class="cls-7" d="M2084.59,1407.68s12.69,10.31,14.26,13.53,5.51,15.14,5.3,19-9.72-8.79-12.52-9.81,2.92,5.19,2.28,6.52-6.6-3-8.87-4.44-3.86-11.06-7.25-16.31S2084.59,1407.68,2084.59,1407.68Z" transform="translate(0)"/><path class="cls-23" d="M1918.09,1716.32h63.26c4.53-3.07-1.22-33.12-1.22-33.12s-17.27-6.56-20.25,6.77-22,17.54-32.05,19.17C1921,1710.26,1918.77,1714,1918.09,1716.32Z" transform="translate(0)"/><path class="cls-23" d="M2011.91,1716.32h63.27c4.53-3.07-1.23-33.12-1.23-33.12s-17.26-6.56-20.24,6.77-22,17.54-32,19.17C2014.78,1710.26,2012.6,1714,2011.91,1716.32Z" transform="translate(0)"/><path class="cls-24" d="M1935.11,1409.73s2.84,35.48,6.18,78.13c4.54,57.93,16.8,201.56,16.8,201.56s8,6.85,25.82,3.1c0,0,15.14-49.55,19.67-106.1l.21-2.8c4.22-57.57,10.77-178.8,10.77-178.8Z" transform="translate(0)"/><path class="cls-23" d="M1934.14,1397.47s3.81,47.74,7.15,90.39l62.29,98.56.21-2.8c4.22-57.57,10.77-178.8,10.77-178.8Z" transform="translate(0)"/><path class="cls-24" d="M1952.29,1397.47s45.18,112.46,59.62,155.09c10.29,30.36,39.3,136.88,39.3,136.88s12.62,3.84,23.22-3.58c0,0,10.8-108.83-11-139.52-11.56-16.28-2.87-169.23-49.77-170.54S1952.29,1397.47,1952.29,1397.47Z" transform="translate(0)"/><path class="cls-19" d="M2038.38,1407.68c-18.83,10.63-99.54,10.39-103.27,2-8.35-18.63-10.45-113.28-6.51-142.31,0,0,2-44.62,6.51-42.65,29.81-13.7,78.06-1.26,78.06-1.26,13,3.83,11.89,33.56,15.52,75.31q.7,8.07,1.56,16.78c2.57,25.78,6.31,55.39,12,86.63C2042.61,1404.29,2041.18,1406.11,2038.38,1407.68Z" transform="translate(0)"/><path class="cls-7" d="M1990.87,1218.49c-.5,8-10.91,7.08-23.42,4.22s-8-10.23-8-10.23.18-5.67,1-12.47c.29-2.47.65-5.1,1.13-7.65.22-1.24.46-2.48.74-3.66,1.64-7,25-.25,24.84,1.64C1986.69,1195.44,1990.38,1212.22,1990.87,1218.49Z" transform="translate(0)"/><polygon class="cls-23" points="1964.05 1232.42 1963.06 1221.39 1976.91 1224.01 1971.58 1233.85 1964.05 1232.42"/><path class="cls-22" d="M1959.76,1207.29l-8.28,12.59a18.31,18.31,0,0,0,7.19,13.36L1970,1222.7S1962.67,1219.91,1959.76,1207.29Z" transform="translate(0)"/><path class="cls-22" d="M1970,1222.7s2.34,8.42,6.88,12.28c0,0,17.67-4.75,21.88-13.81l-9.2-11.88S1989.1,1218.28,1970,1222.7Z" transform="translate(0)"/><path class="cls-25" d="M1987.28,1194.31a43.35,43.35,0,0,1-26.84,5.7c.29-2.47.65-5.1,1.13-7.65,3.07-.74,5.65-1.21,5.65-1.21Z" transform="translate(0)"/><path class="cls-7" d="M1994.42,1185.81c-5.5,15.13-25.57,11.27-34.11,8.84-2.41-.68-3.9-1.25-3.9-1.25-2.64-1.2-3.45-5.81-3.22-11.63.45-11.52,5-27.78,7.61-31.7,3.93-5.9,10.48-11.89,30-3.54S2001.47,1166.42,1994.42,1185.81Z" transform="translate(0)"/><path class="cls-23" d="M2009.45,1178c-6.14,5-19.34,14.28-19.34,14.28s1.47-1.74,3.26-6.74a6.46,6.46,0,0,0,.24-2.28,12.62,12.62,0,0,1,1.81-7c.8-1.31,1.09-2.66.08-3.62-1.67-1.58-4.52-.13-6.39,1.15a3.78,3.78,0,0,1-4.11.11l0,0c-5.24-3.29.55-9.08-3.71-13.89s-22.74-5.47-22-8.48c-6.3-3.56-2.33-16.7-2.21-17.4a68.15,68.15,0,0,0,20.34-2c9.17-2.3,19.28,3.59,22.48,6a5.2,5.2,0,0,0-.51-2.24,4.78,4.78,0,0,1,1.36,3c.14.14.2.24.16.27a6,6,0,0,1,2.89.67s-.78-.25-1.15.22a1,1,0,0,1-.16.12C2014.73,1148.83,2014.55,1173.87,2009.45,1178Z" transform="translate(0)"/><path class="cls-1" d="M1965.4,1183.62s-1,1.91-6,.33c0,0-4.17-1.33-3.48-3.53C1956,1180.42,1960.47,1179.87,1965.4,1183.62Z" transform="translate(0)"/><path class="cls-26" d="M1964.05,1232.42s-11.06,139.68-10.9,151.32,12.25,23.94,12.25,23.94,9.63-10.55,11.51-21.68-5.33-152.15-5.33-152.15Z" transform="translate(0)"/><path class="cls-19" d="M2013.17,1223.51s17.84,4.27,31.95,31.37,25.25,81.76,32,96.18,11.36,59.86,11.36,59.86l-10.67,5.23s-25.74-46.56-29.55-61.83c-2.06-8.26-33.54-74.39-33.54-74.39Z" transform="translate(0)"/><path class="cls-22" d="M2038.38,1407.68h0c-33.6-4.83-24-116-21.34-116.47s12.3,19.88,12.3,19.88l.92,4.51c2.57,25.78,6.31,55.39,12,86.63C2042.61,1404.29,2041.18,1406.11,2038.38,1407.68Z" transform="translate(0)"/><path class="cls-23" d="M2457.58,1650.59s14,12.77,11.26,21.84-15.35,15.12-17.06,26.21-8.53,17.13-14.67,17.13h-29.28s-4.52-7.8,6.39-10.15,15-15.38,14.36-27.48,1-28.22,1-28.22l23.2-5.37Z" transform="translate(0)"/><path class="cls-23" d="M2286,1683.61s2.51,29.06-3.63,32.08l-78.6-.16s0-9.07,12.62-11.09,34.8-9.4,38.56-25.87S2286,1683.61,2286,1683.61Z" transform="translate(0)"/><path class="cls-26" d="M2219.6,1273.2s4.14,50.93,9,112.15c6.62,83.16,14.58,185.31,15.37,204.66,1.36,33.6,6.83,87.35,6.83,87.35s13,12.77,38.89,7.39c0,0,23.12-76.73,29.72-157.92.1-1.33.2-2.67.31-4,6.14-82.65,15.69-256.68,15.69-256.68Z" transform="translate(0)"/><path class="cls-23" d="M2219.6,1273.2s4.14,50.93,9,112.15l90.81,141.48c.1-1.33.2-2.67.31-4,6.14-82.65,15.69-256.68,15.69-256.68Z" transform="translate(0)"/><path class="cls-26" d="M2238.53,1279.25s74.72,184.44,123.85,271.12,64.49,110.87,64.49,110.87,28.15-11.09,30.71-18.65c0,0-18.79-167.34-51.69-208.13-18.59-23-34.63-74.19-33.83-98.39,1.39-41.73-14.28-90.09-14.28-90.09Z" transform="translate(0)"/><path class="cls-7" d="M2178.86,1282s-14,18.89-15,23.93-2.23,23-.56,28.31,10.37-15.72,13.89-18.14-2.2,8.26-.83,9.88,8.09-6.56,10.74-9.35,1.4-16.78,4.23-25.29S2178.86,1282,2178.86,1282Z" transform="translate(0)"/><path class="cls-1" d="M2240.39,1007.42s-18.85,175.51-20.53,180.51c-.37,1.09-1.85,6.65-3.93,14.64-3,11.41-7.16,27.82-11.14,43.41-6,23.57-12.48,44-12.48,44s-2.85,1.84-9.71,1.25a10.28,10.28,0,0,1-7.22-4.4s.69-86.17,4.9-105.81,17.68-140.31,24.49-156.55S2240.39,1007.42,2240.39,1007.42Z" transform="translate(0)"/><path class="cls-27" d="M2215.93,1202.57c-3,11.41-7.16,27.82-11.14,43.41a169.19,169.19,0,0,1-7.88-34.42c-3.79-29,7.86-90.92,7.86-90.92Z" transform="translate(0)"/><path class="cls-1" d="M2365.23,1277.23c-27.06,15.26-143,14.92-148.37,2.94-12-26.76-15-162.74-9.34-204.45,0,0,2.93-64.1,9.34-61.28,42.83-19.67,112.14-1.8,112.14-1.8,18.69,5.5,17.09,48.21,22.3,108.19.67,7.72,1.42,15.78,2.25,24.1,3.69,37,9.06,79.59,17.21,124.47C2371.31,1272.35,2369.25,1275,2365.23,1277.23Z" transform="translate(0)"/><path class="cls-7" d="M2297,1005.43c-.72,11.46-15.67,10.16-33.66,6.06s-11.46-14.7-11.46-14.7.26-8.14,1.4-17.91c.41-3.54.93-7.32,1.61-11,.32-1.8.67-3.56,1.08-5.27,2.35-10.09,35.91-.35,35.67,2.36C2291,972.32,2296.27,996.42,2297,1005.43Z" transform="translate(0)"/><polygon class="cls-23" points="2258.44 1025.44 2257.02 1009.6 2276.92 1013.35 2269.26 1027.49 2258.44 1025.44"/><path class="cls-27" d="M2252.28,989.33l-11.89,18.09a26.31,26.31,0,0,0,10.32,19.2l16.26-15.14S2256.46,1007.47,2252.28,989.33Z" transform="translate(0)"/><path class="cls-27" d="M2267,1011.48s3.37,12.09,9.88,17.64c0,0,25.4-6.83,31.45-19.83l-13.23-17.08S2294.43,1005.13,2267,1011.48Z" transform="translate(0)"/><path class="cls-25" d="M2291.81,970.69a62.31,62.31,0,0,1-38.55,8.19c.41-3.54.93-7.32,1.61-11,4.42-1.08,8.12-1.75,8.12-1.75Z" transform="translate(0)"/><path class="cls-7" d="M2302.07,958.48c-7.9,21.74-36.73,16.19-49,12.7-3.46-1-5.6-1.8-5.6-1.8-3.79-1.72-5-8.34-4.63-16.7.65-16.55,7.19-39.92,10.94-45.55,5.64-8.47,15-17.08,43-5.09S2312.2,930.62,2302.07,958.48Z" transform="translate(0)"/><path class="cls-21" d="M2323.67,947.31c-8.83,7.2-27.79,20.52-27.79,20.52s2.11-2.49,4.69-9.68a9.83,9.83,0,0,0,.35-3.27,18.09,18.09,0,0,1,2.59-10c1.15-1.87,1.57-3.82.11-5.2-2.4-2.26-6.49-.18-9.17,1.66a5.42,5.42,0,0,1-5.91.15l0,0c-7.54-4.72.79-13-5.34-19.95s-32.66-7.85-31.59-12.18c-9.06-5.12-3.35-24-3.19-25a98,98,0,0,0,29.23-2.9c13.17-3.31,27.69,5.15,32.29,8.64a7.28,7.28,0,0,0-.74-3.22,6.81,6.81,0,0,1,2,4.27c.2.2.29.34.23.38a8.68,8.68,0,0,1,4.15.95s-1.12-.35-1.65.32a.68.68,0,0,1-.23.18C2331.25,905.35,2331,941.33,2323.67,947.31Z" transform="translate(0)"/><path class="cls-1" d="M2260.38,955.34s-1.42,2.73-8.55.46c0,0-6-1.9-5-5.06C2246.84,950.74,2253.3,950,2260.38,955.34Z" transform="translate(0)"/><path class="cls-26" d="M2258.44,1025.44s-15.88,200.67-15.66,217.39,17.6,34.4,17.6,34.4,13.84-15.16,16.54-31.15-7.66-218.58-7.66-218.58Z" transform="translate(0)"/><path class="cls-27" d="M2365.23,1277.23h0c-48.27-7-34.44-166.7-30.65-167.33s17.67,28.56,17.67,28.56l1.32,6.47c3.69,37,9.06,79.59,17.21,124.47C2371.31,1272.35,2369.25,1275,2365.23,1277.23Z" transform="translate(0)"/><path class="cls-20" d="M2507.12,1396.23l-102.07,29.7a25.23,25.23,0,0,1-31.18-17.13L2361,1364.57a25.23,25.23,0,0,1,17.13-31.18l102.06-29.7a25.23,25.23,0,0,1,31.19,17.12l12.87,44.23A25.24,25.24,0,0,1,2507.12,1396.23Z" transform="translate(0)"/><path class="cls-21" d="M2374.45,1360.63l13,44.74a25.31,25.31,0,0,0,17.47,17.25,24.92,24.92,0,0,0,8.41.89h0a25,25,0,0,0,5.4-1l101.88-29.65a25.32,25.32,0,0,0,17.19-31.3l-13-44.74a25.32,25.32,0,0,0-31.3-17.19l-35.08,10.21-2.77-9.55a8.35,8.35,0,0,0-10.33-5.67l-3.84,1.12-21.34,6.21-5.31,1.55a8.34,8.34,0,0,0-5.67,10.32l2.78,9.55-20.33,5.91a23.06,23.06,0,0,0-2.34.81h0a25.33,25.33,0,0,0-15.11,17.53h0A25.08,25.08,0,0,0,2374.45,1360.63Zm79-49.29L2417,1322l-2.77-9.55a3.11,3.11,0,0,1,2.11-3.85l9.16-2.66,16.79-4.9,4.54-1.31a3,3,0,0,1,.92-.12,3.11,3.11,0,0,1,2.93,2.23Z" transform="translate(0)"/><path class="cls-7" d="M2422.85,1282.78s-3.16,26.46,2.77,26.08,20.45-3.22,21.44-7.78-11.12-25.82-11.12-25.82Z" transform="translate(0)"/><path class="cls-7" d="M2423.61,1282.71s-4.54,5.64-4.93,10.08-2.56,12.2-.52,12.7,5.75-9.66,5.75-9.66Z" transform="translate(0)"/><path class="cls-1" d="M2329,1012.64s25.63,6.14,45.9,45.07,36.27,117.45,46,138.18,17,82.91,17,82.91-1.51,3.09-6.73,4.22a32,32,0,0,1-8.2.53s-38.11-61-43.58-83c-3-11.87-48.18-106.87-48.18-106.87Z" transform="translate(0)"/><polygon class="cls-7" points="640.73 1690.44 636.89 1662.77 653.02 1649.29 658.11 1685.92 640.73 1690.44"/><path class="cls-23" d="M694.31,1715.15H628.53s-1.57-10,1.86-17.63c3.29-7.3,8.42-11.81,8.88-17.4,4.18,4.31,9.33,7.08,18.84,5.8,1.16,1.89,7.52,12,11.41,14.79C673.82,1703.8,693,1702.7,694.31,1715.15Z" transform="translate(0)"/><path class="cls-13" d="M681.09,1316.88c-4.3,34.6-7.82,67.23-10.68,97.63-15.31,162-12.3,261-12.3,261s-1.11,2.93-10.6,3a54.36,54.36,0,0,1-10.62-1.14s-34.27-105.79-31.63-166a92.63,92.63,0,0,1,2.68-19.49c8.22-30.8-30.43-148.59,11.58-192.46S683.07,1301,681.09,1316.88Z" transform="translate(0)"/><path class="cls-12" d="M681.09,1316.88c-4.3,34.6-7.82,67.23-10.68,97.63l-65.15,96.87a92.63,92.63,0,0,1,2.68-19.49c8.22-30.8-30.43-148.59,11.58-192.46S683.07,1301,681.09,1316.88Z" transform="translate(0)"/><path class="cls-7" d="M732.86,986.81s-1.58-7.91-3.37-13.94c-.79-2.67,4.72-20.21,8.53-22.36s13.73,9.65,10.93,18.71c-1.45,4.66-3.82,19.82-3.82,19.82Z" transform="translate(0)"/><path class="cls-7" d="M732.86,986.81s-2.07-4.59-3.94-5.33-3.87-8.24-5.25-11.21c0,0,1.33-1.94,3.65.56,1.42,1.52,4.57,6,4.57,6Z" transform="translate(0)"/><path class="cls-7" d="M461.32,1013.4c-.4.83-1,2.32-1.46,3.72,0-.38,0-.76,0-1.13,0-2.78-10.42-17.94-14.7-18.89s-10.3,13.25-5,21.1c2.75,4,9.45,17.83,9.45,17.83l11.08-5.72s.64-5,2.21-6.25,1.29-9,1.74-12.26C464.65,1011.8,462.81,1010.33,461.32,1013.4Z" transform="translate(0)"/><path class="cls-7" d="M530.42,1682.14c-.93-8.86-1.16-32.19-1.16-32.19s23.77-7.6,22.89-2.38c-4.3,25.65-3.13,38.35-3.13,38.35l-9.61,5.74Z" transform="translate(0)"/><path class="cls-13" d="M661.24,1315.23S569.41,1567,551.33,1676.15c0,0-4.19,2.88-12,1.92-8.86-1.08-11.29-7.24-11.29-7.24s-16.59-130.87,16.39-176.3c22.65-31.22-9.77-168.31,43-179.3S661.24,1315.23,661.24,1315.23Z" transform="translate(0)"/><path class="cls-9" d="M644.93,1073.08h0a1.87,1.87,0,0,0-.08-.32c-.53-2.22-1.12-4.4-1.75-6.56h0a147.43,147.43,0,0,0-6.68-18.49,97,97,0,0,0-4.4-8.78l-.67-1.17h0c-3.55-6-7.19-10.09-10.49-11.36-6-2.32-12.68-1.68-17.28-.72a7.89,7.89,0,0,1,3.3-2.2c-2.94,0-8.93,3.8-8.93,3.8-42.3-9.46-39.83,50.37-37,63.93s-10.75,20.15-30,34c-36.65,26.47-36,54.54-36,54.54.33.14.69.3,1.07.49,1.47-3.63,4.6-10.51,7.88-12a143.3,143.3,0,0,0-3.52,14.21c5.58,3.08,13.31,7.84,21.7,13.22h0c11.23,7.18,23.61,15.45,33.54,22.16-.47-2.73-.94-6.63-.24-8.83l3.16,9.8.42,1.28c6.33,4.29,11.33,7.73,13.87,9.49l.7.48,1.14.78c-.85-3.46,2.85-12.49,9.06-23.87.42-.79.87-1.6,1.33-2.42,2-3.6,4.24-7.39,6.65-11.3.87-1.41,1.75-2.82,2.66-4.26,0,0,0,0,0,0,.73-1.16,1.47-2.31,2.23-3.48h0q2.7-4.17,5.56-8.38c4.91-7.26,10.12-14.47,15.26-21.08,7.47-9.63,14.8-18,20.94-23.48.2-.41.39-.83.56-1.26a41.62,41.62,0,0,0,2.27-7.24c.17-.75.33-1.52.47-2.28a99.1,99.1,0,0,0,1.54-17.93,101.84,101.84,0,0,1-.22,18.07c-.12,1-.25,1.88-.4,2.72h0a35.34,35.34,0,0,1-1.11,4.76,24.39,24.39,0,0,0,2.67-4.11,28.63,28.63,0,0,0,1.39-3.07C650.55,1109.61,649.22,1090.76,644.93,1073.08Z" transform="translate(0)"/><path class="cls-7" d="M637,1133.7c.15,0-11.84,8.71-22,7.49-9.56-1.14-17.34-12.16-17.21-12.2,3.77-1.35,4.1-6.87.6-29.83l1.81.08,30.45,1.46s.71,9.41,2,18.18C633.7,1126.24,635.18,1133.16,637,1133.7Z" transform="translate(0)"/><path class="cls-11" d="M630.63,1100.7s.71,9.41,2,18.18c-16.62,2-27.61-11.8-32.44-19.64Z" transform="translate(0)"/><path class="cls-9" d="M596.64,1096.48s-10.71-12.42-14.53-23.83c-2.73-8.14-3.08-39.78,28.74-40a42.76,42.76,0,0,1,18.55,4c7.44,3.57,18.68,12,11.78,40.66l-1.47,9.57Z" transform="translate(0)"/><path class="cls-1" d="M684.93,1310.4s-39.62,23.54-89.36,11.44c-.59-.15-41-6.59-41-6.59.7-1.9,5.92-33.09,6.6-34.83,8.82-22.78,24.95-146.38,38.43-152.48,3.44,3.75,13.27,6.31,21.69,5.57,9.69-.86,12.94-5,12.13-9.55,10.73,5.07,19,9.78,19,9.78C662.22,1148.43,684.93,1310.4,684.93,1310.4Z" transform="translate(0)"/><path class="cls-7" d="M637.39,1108.18s-39.06,6.47-42.72-17.92-11.16-40,13.63-45.14,31,3.42,34.23,11.26S647.45,1105.87,637.39,1108.18Z" transform="translate(0)"/><path class="cls-9" d="M626,1041.87s-6.46,30.21-22.29,36.89-23.61,3.33-23.61,3.33a47.07,47.07,0,0,0,11.14-29.79S615.93,1029.46,626,1041.87Z" transform="translate(0)"/><path class="cls-9" d="M623.73,1044.59s9,5.2,11.83,11.12,5.66,18.58,9.32,17.59c0,0,5.19-20.65-5.53-30.31C628,1032.76,623.73,1044.59,623.73,1044.59Z" transform="translate(0)"/><path class="cls-24" d="M745.4,987.37c-1.59-.56-3.93-1.88-7-2.16a21.76,21.76,0,0,0-6.14.65s-11,68.5-11.84,72.13-47.27,56-59.79,55.75c-11.31-.19-24.71,8.54-27.2,10.22,0,0,26.34,55.69,27.65,66.15,1.43,11.38,15.07,186.68,15.07,186.68s-.81,8.15,14.42,3.77,19-8,19-8-14-138-16.93-180.92a82.64,82.64,0,0,0-2.68-16,16.2,16.2,0,0,1,2.63-13.78c19.26-26.45,49.68-69.29,51.37-78.4C746.52,1070.05,745.4,987.37,745.4,987.37Z" transform="translate(0)"/><path class="cls-23" d="M585.22,1715.15H519.44s-1.57-10,1.86-17.63c3.3-7.3,8.42-11.81,8.89-17.4,4.18,4.31,9.32,7.08,18.83,5.8,1.16,1.89,7.52,12,11.41,14.79C564.73,1703.8,583.9,1702.7,585.22,1715.15Z" transform="translate(0)"/><path class="cls-24" d="M630.41,1195.52c-2.22-13.64-30.52-68.42-30.52-68.42s-17.9-5.35-29.67-1.08-72.71-30.14-74.66-33.31-34.59-64-34.59-64-2.71-1.57-7,.69a7.93,7.93,0,0,0-4.31,6.6s25.19,76.56,31.89,88.41c4,7.14,38,32,64.35,50.63a16.51,16.51,0,0,1,6.84,15.71c-3.54,26.18-4.44,40.93-8.51,85.85-3.38,37.27-4.67,109.43-4.67,109.43s29.47,10.2,49.81,11.55,24.78-20.09,24.78-20.09S632.69,1209.55,630.41,1195.52Z" transform="translate(0)"/><path class="cls-1" d="M624.59,1096.12a17.41,17.41,0,0,0,10.35,2c3.83-.58,4.71-5.13,4.71-5.13a15.11,15.11,0,0,0-6.93,0A29.38,29.38,0,0,0,624.59,1096.12Z" transform="translate(0)"/><path class="cls-7" d="M1872.25,631.22s-18.28-32.48,0-39.09,26.54-.51,27.41,6.88-7,36.56-7,36.56Z" transform="translate(0)"/><path class="cls-13" d="M1886.89,839a590.52,590.52,0,0,1-91.62,9.41,510.06,510.06,0,0,1-70.42-3.17c-5.54-.63-10.86-1.35-16-2.12-54-8.18-83.75-22.69-83.75-22.69s49.3-103.2,89.13-99.24C1761,725.81,1840.15,767.74,1848,756c8.86-13.25,16.28-126.87,16.28-126.87,20.71-14.18,33.08.77,33.08.77S1937.85,829.77,1886.89,839Z" transform="translate(0)"/><path class="cls-12" d="M1886.89,839a590.52,590.52,0,0,1-91.62,9.41,510.06,510.06,0,0,1-70.42-3.17c-12.43-39.53-21.37-79.91,3.63-55.56C1772.58,832.57,1886.89,839,1886.89,839Z" transform="translate(0)"/><path class="cls-23" d="M1621.39,1672.18s-3.54,41,5.13,45.29l111-.22s0-12.81-17.83-15.66-49.14-13.28-54.44-36.52S1621.39,1672.18,1621.39,1672.18Z" transform="translate(0)"/><path class="cls-26" d="M1702.87,1175.66c-.55,26.82-1.84,54.49-4.36,79.36-12,118-16.2,260.58-17.92,288.07-3,47.71-12.41,123.94-12.41,123.94s-18.7,17.75-55.14,9.28c0,0-30.2-109.79-37-225.4l-.3-5.71c-.78-15.29-1.6-32.76-2.44-51.61-5.55-126.23-11.58-313.74-11.58-313.74l139.26-32.7S1704.24,1108.78,1702.87,1175.66Z" transform="translate(0)"/><path class="cls-23" d="M1702.87,1175.66c-35.29,60.89-102.57,173.08-129.52,217.93-5.55-126.23-11.58-313.74-11.58-313.74l139.26-32.7S1704.24,1108.78,1702.87,1175.66Z" transform="translate(0)"/><path class="cls-7" d="M1350.24,1057.7s-22.66,26.65-24.7,34-5.67,34-3.72,42,17-22.31,22.49-25.54-4.11,12-2.24,14.6,12.69-8.92,16.91-12.81,3.81-24.78,8.87-37.14S1350.24,1057.7,1350.24,1057.7Z" transform="translate(0)"/><path class="cls-23" d="M1344.93,1625.56s-19.76,18-15.9,30.83,21.68,21.35,24.09,37,12,24.2,20.71,24.2h41.35s6.38-11-9-14.34-21.23-21.72-20.26-38.79-1.45-39.85-1.45-39.85l-32.76-7.59Z" transform="translate(0)"/><path class="cls-26" d="M1679.09,1082.71S1548.72,1361.65,1479.34,1484s-91,156.54-91,156.54-39.75-15.65-43.36-26.33c0,0,26.53-236.28,73-293.88,26.25-32.54,57.09-130.21,58.53-164.37s31.9-115.68,31.9-115.68Z" transform="translate(0)"/><path class="cls-13" d="M1717.2,1095.86s-51.84,34.66-125.22,31.44c-32.2-1.4-96.07-10.53-106.38-36.14-2.42-6-.65-13.65,3-25.36,9.43-30.44,31.39-88.41,24.76-216.93a211.41,211.41,0,0,1,.86-33.73c6.91-63.31,43.19-100.8,78.26-113,85.52-29.89,114,11.52,114,11.52s37.8,29.95,43.5,92.45C1761.38,931.08,1717.2,1095.86,1717.2,1095.86Z" transform="translate(0)"/><path class="cls-7" d="M1617.52,694.91s39.24,23.86,81.8,17.11c0,0,8.42-2.14,4.28-12a127.88,127.88,0,0,0,3.78-13.17,199.64,199.64,0,0,0,4.87-21.5l-24.15-25.39-22.88-24.26C1658.9,673.66,1617.52,694.91,1617.52,694.91Z" transform="translate(0)"/><path class="cls-28" d="M1661.56,637.67s13.14,35.13,45.82,49.16c3.73-13.64,6.16-27.9,6.16-27.9l-25.44-19Z" transform="translate(0)"/><path class="cls-7" d="M1739.35,664.1s-74.9,9.36-80.16-36.67-18.47-75.82,29.13-83.74,58.92,8.62,64.47,23.57S1758.7,660.48,1739.35,664.1Z" transform="translate(0)"/><path class="cls-29" d="M1635.54,536.21c-.65-.8-2.18-1.49-5.64-1.81a14.07,14.07,0,0,1,6.55-1.58c.91-4.8,3.79-13.24,12.17-15a10.4,10.4,0,0,0-5.32,7.32c10-9.51,30.86-15.92,87.74-9.26,75,8.78,48.37,56,38.42,61.35s-33.86-11.29-52-10.54-22.63,26.83-28.92,30.2-3.63-2.91-11.81-7-9.5,9.68-7.43,18.74-9.82,20.46-9.82,20.46l-11.09-12.88c-11.09-12.89-20-66-14.31-77.07Z" transform="translate(0)"/><polygon class="cls-26" points="1864.3 609.67 1737.14 610.8 1736.27 591.68 1863.03 581.85 1864.3 609.67"/><polygon class="cls-26" points="1960.29 612.87 1821.84 614.87 1820.26 580.09 1958.31 569.39 1960.29 612.87"/><polygon class="cls-23" points="2053.64 615.6 1936.89 615.74 1934.76 568.79 2051.03 558.21 2053.64 615.6"/><path class="cls-23" d="M2055.31,623.52h0a6.51,6.51,0,0,0,6.22-6.81l-2.74-60.32a6.53,6.53,0,0,0-6.81-6.23h0a6.54,6.54,0,0,0-6.23,6.82l2.74,60.32A6.53,6.53,0,0,0,2055.31,623.52Z" transform="translate(0)"/><path class="cls-26" d="M1736.74,614.89h0a5.81,5.81,0,0,1-6.06-5.53L1730,593.7a5.81,5.81,0,0,1,5.53-6.06h0a5.8,5.8,0,0,1,6.06,5.54l.72,15.65A5.82,5.82,0,0,1,1736.74,614.89Z" transform="translate(0)"/><path class="cls-12" d="M1488.58,1065.8c9.43-30.44,31.39-88.41,24.76-216.93a211.41,211.41,0,0,1,.86-33.73h0c28.14-2.42,71.17,28,71.17,28S1558.88,1004.68,1488.58,1065.8Z" transform="translate(0)"/><path class="cls-13" d="M1617.52,694.91s-72.17,12.4-109.81,58.35S1409.52,864,1395.21,886.69s-54.06,177.1-54.06,177.1,2.63,5,13.59,7.85a25.81,25.81,0,0,0,18.1-1.52S1425.49,980,1445.31,935c8.23-18.71,150.62-92.78,204.15-85.1C1670.48,852.91,1617.52,694.91,1617.52,694.91Z" transform="translate(0)"/><path class="cls-7" d="M1863.54,576.37s15.52,9.5,24.81,5.48,8.46-7.69,8.46-7.69S1868.76,566.37,1863.54,576.37Z" transform="translate(0)"/><path class="cls-21" d="M1687.55,745.24s-31.67,200-256.38,258.18l-24.48,48.29,43,7.28s255.83-74.12,252.38-317.28Z" transform="translate(0)"/><polygon class="cls-20" points="1682.64 713.33 1672.27 714.35 1672.27 729.36 1687.55 745.25 1702.08 741.71 1702.08 720.87 1691.63 713.33 1682.64 713.33"/><path class="cls-12" d="M1641.94,673.57s-10,2.26-33,21.34c0,0,22.83,48.45,71,54.25,0,0-.77-22.48,2.71-35.83C1682.64,713.33,1644.47,699.66,1641.94,673.57Z" transform="translate(0)"/><path class="cls-12" d="M1682.64,713.33s23.5,12.48,25.24,31.91c0,0,9-14.23,6.38-24.08S1703.6,700,1703.6,700,1704.4,711.88,1682.64,713.33Z" transform="translate(0)"/></svg>